<svg width="237" height="62" viewBox="0 0 237 62" fill="none" xmlns="http://www.w3.org/2000/svg">
<path d="M95.712 27.687H98.5795V16.1008H102.842V13.9308H91.4495V16.1008H95.712V27.687ZM108.511 17.4958C107.31 17.4958 106.109 18.0576 105.295 19.6076V17.612H102.738V27.687H105.353V22.0489C106.128 20.4989 107.252 19.7239 108.705 19.7239H109.151V17.5733C108.976 17.5151 108.744 17.4958 108.511 17.4958ZM111.917 16.6626C112.808 16.6626 113.467 16.0426 113.467 15.1901C113.467 14.357 112.808 13.737 111.917 13.737C111.026 13.737 110.367 14.357 110.367 15.1901C110.367 16.0426 111.026 16.6626 111.917 16.6626ZM110.619 27.687H113.235V17.612H110.619V27.687ZM125.008 25.672C124.911 25.7108 124.698 25.7301 124.524 25.7301C124.117 25.7301 123.943 25.5364 123.943 25.1295V20.9833C123.943 18.5808 122.625 17.4183 119.913 17.4183C118.343 17.4183 116.464 17.8639 115.418 18.4839L116.212 20.3633C117.433 19.7239 118.498 19.4139 119.486 19.4139C120.823 19.4139 121.385 19.8983 121.385 21.0414V21.5645C117.123 21.5451 114.875 22.6883 114.875 24.8583C114.875 26.6989 116.173 27.842 118.246 27.842C119.603 27.842 120.765 27.3383 121.54 26.4664C121.85 27.3576 122.625 27.8226 123.865 27.8226C124.272 27.8226 124.737 27.7258 125.183 27.5708L125.008 25.672ZM118.847 25.8851C117.956 25.8851 117.491 25.4976 117.491 24.7614C117.491 23.6764 118.227 23.3858 121.385 23.2308V24.8776C120.746 25.4976 119.796 25.8851 118.847 25.8851ZM138.401 17.4376C136.871 17.4376 135.747 18.0383 135.088 19.2201C134.546 18.0383 133.461 17.4376 131.814 17.4376C130.438 17.4376 129.45 17.9414 128.811 18.9489V17.612H126.253V27.687H128.869V20.6733C129.334 19.9564 130.186 19.4914 131.136 19.4914C132.298 19.4914 132.86 20.1695 132.86 21.5258V27.687H135.476V21.2933C135.476 21.0995 135.476 20.9058 135.456 20.712C135.902 19.9758 136.774 19.4914 137.743 19.4914C138.905 19.4914 139.467 20.1695 139.467 21.5258V27.687H142.083V21.2933C142.083 18.7551 140.823 17.4376 138.401 17.4376ZM155.164 27.8808C158.788 27.8808 161.016 25.827 161.016 22.4945V13.9308H158.148V22.7658C158.148 24.5676 157.005 25.672 155.164 25.672C153.343 25.672 152.219 24.5676 152.219 22.7658V13.9308H149.352V22.4945C149.352 25.827 151.561 27.8808 155.164 27.8808ZM170.286 13.9308V17.767C169.608 17.5345 168.93 17.4183 168.174 17.4183C164.919 17.4183 162.768 19.5495 162.768 22.7658C162.768 25.7883 164.667 27.8808 167.418 27.8808C168.639 27.8808 169.647 27.4739 170.344 26.7376V27.687H172.902V13.9308H170.286ZM168.407 25.9433C166.566 25.9433 165.384 24.6451 165.384 22.6495C165.384 20.6733 166.585 19.4139 168.465 19.4139C169.104 19.4139 169.743 19.5495 170.286 19.8014V25.3426C169.802 25.7301 169.143 25.9433 168.407 25.9433ZM179.49 27.8808C182.629 27.8808 184.818 25.7301 184.818 22.6495C184.818 19.5689 182.629 17.4183 179.49 17.4183C176.351 17.4183 174.162 19.5689 174.162 22.6495C174.162 25.7301 176.351 27.8808 179.49 27.8808ZM179.49 25.8851C177.921 25.8851 176.816 24.5676 176.816 22.6495C176.816 20.7314 177.921 19.4139 179.49 19.4139C181.059 19.4139 182.164 20.7314 182.164 22.6495C182.164 24.5676 181.059 25.8851 179.49 25.8851ZM198.426 17.4376C196.896 17.4376 195.772 18.0383 195.113 19.2201C194.571 18.0383 193.486 17.4376 191.839 17.4376C190.463 17.4376 189.475 17.9414 188.836 18.9489V17.612H186.278V27.687H188.894V20.6733C189.359 19.9564 190.211 19.4914 191.161 19.4914C192.323 19.4914 192.885 20.1695 192.885 21.5258V27.687H195.501V21.2933C195.501 21.0995 195.501 20.9058 195.481 20.712C195.927 19.9758 196.799 19.4914 197.767 19.4914C198.93 19.4914 199.492 20.1695 199.492 21.5258V27.687H202.107V21.2933C202.107 18.7551 200.848 17.4376 198.426 17.4376ZM98.8314 50.8808C100.498 50.8808 102.145 50.4351 103.191 49.6989L102.241 47.7226C101.156 48.3426 100.052 48.672 99.0058 48.672C96.3708 48.672 94.7433 46.812 94.7433 43.7895C94.7433 40.7864 96.3514 38.9458 98.9864 38.9458C100.11 38.9458 101.331 39.2945 102.241 39.8758L103.191 37.8801C102.203 37.1633 100.536 36.737 98.812 36.737C94.4914 36.737 91.837 39.4301 91.837 43.8089C91.837 48.1876 94.4914 50.8808 98.8314 50.8808ZM108.708 50.8808C111.846 50.8808 114.036 48.7301 114.036 45.6495C114.036 42.5689 111.846 40.4183 108.708 40.4183C105.569 40.4183 103.38 42.5689 103.38 45.6495C103.38 48.7301 105.569 50.8808 108.708 50.8808ZM108.708 48.8851C107.138 48.8851 106.034 47.5676 106.034 45.6495C106.034 43.7314 107.138 42.4139 108.708 42.4139C110.277 42.4139 111.381 43.7314 111.381 45.6495C111.381 47.5676 110.277 48.8851 108.708 48.8851ZM127.644 40.4376C126.113 40.4376 124.989 41.0383 124.331 42.2201C123.788 41.0383 122.703 40.4376 121.056 40.4376C119.681 40.4376 118.693 40.9414 118.053 41.9489V40.612H115.496V50.687H118.111V43.6733C118.576 42.9564 119.429 42.4914 120.378 42.4914C121.541 42.4914 122.103 43.1695 122.103 44.5258V50.687H124.718V44.2933C124.718 44.0995 124.718 43.9058 124.699 43.712C125.144 42.9758 126.016 42.4914 126.985 42.4914C128.148 42.4914 128.709 43.1695 128.709 44.5258V50.687H131.325V44.2933C131.325 41.7551 130.066 40.4376 127.644 40.4376ZM138.822 40.4183C137.698 40.4183 136.768 40.7283 136.051 41.3483V40.612H133.552V54.3683H136.167V50.3383C136.865 50.687 137.717 50.8808 138.647 50.8808C141.67 50.8808 143.685 48.7301 143.685 45.4751C143.685 42.4333 141.747 40.4183 138.822 40.4183ZM138.143 49.0208C137.388 49.0208 136.71 48.7883 136.167 48.3814V43.0145C136.71 42.5495 137.407 42.317 138.182 42.317C139.984 42.317 141.069 43.5183 141.069 45.5139C141.069 47.6258 139.907 49.0208 138.143 49.0208ZM152.09 40.612V47.5676C151.567 48.3233 150.598 48.827 149.571 48.827C148.35 48.827 147.75 48.1295 147.75 46.6764V40.612H145.134V46.9089C145.134 49.5245 146.413 50.8808 148.893 50.8808C150.365 50.8808 151.45 50.3576 152.148 49.3114V50.687H154.705V40.612H152.09ZM160.628 50.8033C161.655 50.8033 162.585 50.6095 163.282 50.222L162.74 48.4395C162.158 48.7108 161.693 48.827 161.228 48.827C160.453 48.827 160.124 48.4201 160.124 47.4708V42.5495H162.759V40.612H160.124V38.2483H157.741V39.2751C157.741 40.3989 157.431 40.7089 156.327 40.7089H155.862V42.5495H157.508V47.1608C157.508 49.8151 158.361 50.8033 160.628 50.8033ZM173.535 45.3201C173.535 42.2783 171.714 40.4183 168.75 40.4183C165.572 40.4183 163.48 42.5108 163.48 45.6495C163.48 48.8464 165.65 50.8808 169.06 50.8808C170.687 50.8808 172.082 50.4158 173.129 49.5245L171.985 47.8776C171.191 48.5558 170.203 48.9239 169.176 48.9239C167.49 48.9239 166.347 47.9358 166.154 46.3664H173.477C173.516 45.9014 173.535 45.572 173.535 45.3201ZM166.154 44.6226C166.386 43.2276 167.316 42.3558 168.711 42.3558C170.164 42.3558 171.055 43.2276 171.075 44.6226H166.154ZM180.726 40.4958C179.525 40.4958 178.324 41.0576 177.51 42.6076V40.612H174.953V50.687H177.568V45.0489C178.343 43.4989 179.467 42.7239 180.92 42.7239H181.366V40.5733C181.191 40.5151 180.959 40.4958 180.726 40.4958ZM193.786 50.8808C195.453 50.8808 197.099 50.4351 198.146 49.6989L197.196 47.7226C196.111 48.3426 195.007 48.672 193.961 48.672C191.326 48.672 189.698 46.812 189.698 43.7895C189.698 40.7864 191.306 38.9458 193.941 38.9458C195.065 38.9458 196.286 39.2945 197.196 39.8758L198.146 37.8801C197.158 37.1633 195.491 36.737 193.767 36.737C189.446 36.737 186.792 39.4301 186.792 43.8089C186.792 48.1876 189.446 50.8808 193.786 50.8808ZM202.035 50.8033C202.616 50.8033 203.159 50.7451 203.663 50.5901L203.508 48.672C203.391 48.6914 203.081 48.7301 202.868 48.7301C202.442 48.7301 202.113 48.5945 202.113 47.8389V36.9308H199.497V48.0714C199.497 49.757 199.981 50.8033 202.035 50.8033ZM212.011 40.612V47.5676C211.488 48.3233 210.52 48.827 209.493 48.827C208.272 48.827 207.671 48.1295 207.671 46.6764V40.612H205.056V46.9089C205.056 49.5245 206.335 50.8808 208.815 50.8808C210.287 50.8808 211.372 50.3576 212.07 49.3114V50.687H214.627V40.612H212.011ZM222.235 40.4183C221.228 40.4183 220.356 40.6508 219.658 41.0964V36.9308H217.043V50.687H219.6V49.8733C220.298 50.5126 221.286 50.8808 222.468 50.8808C225.277 50.8808 227.195 48.672 227.195 45.4364C227.195 42.3364 225.296 40.4183 222.235 40.4183ZM221.635 48.9433C220.879 48.9433 220.181 48.7301 219.658 48.3426V43.0533C220.201 42.6464 220.898 42.4139 221.673 42.4139C223.495 42.4139 224.541 43.5376 224.541 45.5139C224.541 47.587 223.398 48.9433 221.635 48.9433Z" fill="white"/>
<ellipse cx="55.7692" cy="42.7025" rx="6.23077" ry="6.2775" transform="rotate(-180 55.7692 42.7025)" fill="#3B55A5"/>
<ellipse cx="55.7692" cy="17.9024" rx="6.23077" ry="6.2775" transform="rotate(-180 55.7692 17.9024)" fill="#3B55A5"/>
<rect x="53.8459" y="37.2" width="14.725" height="3.6923" transform="rotate(-90 53.8459 37.2)" fill="#3B55A5"/>
<rect x="36.0771" y="16.1199" width="14.6154" height="3.72" fill="#3B55A5"/>
<rect x="35.9998" y="40.9197" width="14.6154" height="3.72" fill="#3B55A5"/>
<ellipse cx="18.2305" cy="30.9223" rx="6.23077" ry="6.2775" fill="#1EBCEE"/>
<ellipse cx="42.8458" cy="30.9223" rx="6.23077" ry="6.2775" fill="#1EBCEE"/>
<ellipse cx="42.8458" cy="55.7223" rx="6.23077" ry="6.2775" fill="#1EBCEE"/>
<ellipse cx="18.2305" cy="55.7223" rx="6.23077" ry="6.2775" fill="#1EBCEE"/>
<rect x="20.1538" y="36.4253" width="14.725" height="3.69231" transform="rotate(90 20.1538 36.4253)" fill="#1EBCEE"/>
<rect x="37.9226" y="57.5049" width="14.6154" height="3.72" transform="rotate(-180 37.9226 57.5049)" fill="#1EBCEE"/>
<rect x="38" y="32.7048" width="14.6154" height="3.72" transform="rotate(-180 38 32.7048)" fill="#1EBCEE"/>
<ellipse cx="6.23077" cy="18.3676" rx="6.23077" ry="6.2775" fill="white"/>
<ellipse cx="6.23077" cy="42.8576" rx="6.23077" ry="6.2775" fill="white"/>
<ellipse cx="30.692" cy="42.8576" rx="6.23077" ry="6.2775" fill="white"/>
<rect x="32.6152" y="30.6899" width="14.725" height="3.69231" transform="rotate(90 32.6152 30.6899)" fill="white"/>
<rect x="7.84595" y="23.4053" width="14.725" height="3.69231" transform="rotate(90 7.84595 23.4053)" fill="white"/>
<rect x="25.8462" y="44.6401" width="14.6154" height="3.72" transform="rotate(-180 25.8462 44.6401)" fill="white"/>
<ellipse cx="18.2305" cy="6.2775" rx="6.23077" ry="6.2775" fill="#D55AA1"/>
<ellipse cx="43.1539" cy="6.2775" rx="6.23077" ry="6.2775" fill="#D55AA1"/>
<ellipse cx="30.6919" cy="18.8322" rx="6.23077" ry="6.2775" fill="#D55AA1"/>
<rect x="17.9995" y="4.33984" width="25.5385" height="3.72" fill="#D55AA1"/>
<rect x="32.6152" y="4.33984" width="14.725" height="3.69231" transform="rotate(90 32.6152 4.33984)" fill="#D55AA1"/>
<rect x="32.6152" y="15.9651" width="14.725" height="3.69231" transform="rotate(90 32.6152 15.9651)" fill="#D55AA1"/>
<line x1="76.531" y1="3.875" x2="76.531" y2="60.0625" stroke="white" stroke-width="1.9375"/>
</svg>
